HIERARCHY
ROOT Hips
{
	OFFSET 0.00000 0.00000 0.00000
	CHANNELS 6 Xposition Yposition Zposition Zrotation Yrotation Xrotation 
	JOINT RightUpLegDummy
	{
		OFFSET 0 0 0
		CHANNELS 3 Zrotation Yrotation Xrotation
		JOINT RightUpLeg
		{
			OFFSET -3.52197 -3.41223 0.04002
			CHANNELS 3 Zrotation Yrotation Xrotation
			JOINT RightLeg
			{
				OFFSET 0.00006 -17.42390 1.60435
				CHANNELS 3 Zrotation Yrotation Xrotation
				JOINT RightFoot
				{
					OFFSET 0.06153 -16.50078 -1.63901
					CHANNELS 3 Zrotation Yrotation Xrotation
					JOINT RightToes
					{
						OFFSET 0.00298 -1.73825 3.34613
						CHANNELS 3 Zrotation Yrotation Xrotation
						End Site
						{
							OFFSET 0.00480 -0.05416 3.85043
						}
					}
				}
			}
		}
	}
	JOINT SpineDummy
	{
		OFFSET 0 0 0
		CHANNELS 3 Zrotation Yrotation Xrotation
		JOINT Spine
		{
			OFFSET 0.00000 4.68130 0.00000
			CHANNELS 3 Zrotation Yrotation Xrotation
			JOINT Spine1
			{
				OFFSET -0.00000 10.10138 0.05002
				CHANNELS 3 Zrotation Yrotation Xrotation
				JOINT HEadDummy
				{
					OFFSET 0 0 0
					CHANNELS 3 Zrotation Yrotation Xrotation
					JOINT Head
					{
						OFFSET -0.00000 3.43865 0.00438
						CHANNELS 3 Zrotation Yrotation Xrotation
						End Site
						{
							OFFSET -0.11417 5.02924 0.98962
						}
					}
				}
				JOINT LeftShoulder1Dummy
				{
					OFFSET 0 0 0
					CHANNELS 3 Zrotation Yrotation Xrotation
					JOINT LeftShoulder1
					{
						OFFSET 3.53937 -0.14262 -0.08662
						CHANNELS 3 Zrotation Yrotation Xrotation
						JOINT LeftArm
						{
							OFFSET 4.04833 -0.00133 0.12681
							CHANNELS 3 Zrotation Yrotation Xrotation
							JOINT LeftForeArm
							{
								OFFSET 10.33880 -0.01036 -0.55515
								CHANNELS 3 Zrotation Yrotation Xrotation
								JOINT LeftHand
								{
									OFFSET 8.69677 0.07543 0.40060
									CHANNELS 3 Zrotation Yrotation Xrotation
									End Site
									{
										OFFSET 5.28377 -0.21905 0.59205
									}
								}
							}
						}
					}
				}
				JOINT RightShoulderDummy
				{
					OFFSET 0 0 0
					CHANNELS 3 Zrotation Yrotation Xrotation
					JOINT RightShoulder
					{
						OFFSET -3.53937 -0.14262 -0.08660
						CHANNELS 3 Zrotation Yrotation Xrotation
						JOINT RightArm
						{
							OFFSET -4.04833 -0.00133 0.12683
							CHANNELS 3 Zrotation Yrotation Xrotation
							JOINT RightForeArm
							{
								OFFSET -10.37987 -0.01039 -0.55511
								CHANNELS 3 Zrotation Yrotation Xrotation
								JOINT RightHand
								{
									OFFSET -8.67398 0.07538 0.40058
									CHANNELS 3 Zrotation Yrotation Xrotation
									End Site
									{
										OFFSET -5.24810 -0.21916 0.59204
									}
								}
							}
						}
					}
				}
			}
		}
	}
	JOINT LeftUpLegDummy
	{
		OFFSET 0 0 0
		CHANNELS 3 Zrotation Yrotation Xrotation
		JOINT LeftUpLeg
		{
			OFFSET 3.52197 -3.41223 0.04002
			CHANNELS 3 Zrotation Yrotation Xrotation
			JOINT LeftLeg
			{
				OFFSET -0.00012 -17.42399 1.60337
				CHANNELS 3 Zrotation Yrotation Xrotation
				JOINT LeftFoot
				{
					OFFSET -0.09972 -16.50070 -1.63802
					CHANNELS 3 Zrotation Yrotation Xrotation
					JOINT LeftToes
					{
						OFFSET -0.01575 -1.73823 3.34611
						CHANNELS 3 Zrotation Yrotation Xrotation
						End Site
						{
							OFFSET 0.03150 -0.01868 3.85031
						}
					}
				}
			}
		}
	}
}
MOTION
Frames: 14
Frame Time: 0.033333
-0.5233 40.2038 -4.1360 -0.3160 -4.1559 0.8091 0.0000 0.0000 0.0000 -3.3584 -3.7461 0.1246 -2.2396 -11.5464 1.3023 2.8783 -0.2570 -0.8478 0.0000 -0.0000 -0.0000 0.0000 0.0000 0.0000 1.3837 -0.2098 -0.8858 0.1197 -0.3277 -0.0937 -0.0000 0.0000 -0.0000 -0.0452 -0.9567 -1.5589 -0.0000 0.0000 -0.0000 -2.8364 2.5015 0.1101 5.6264 -12.6392 -32.2431 -8.1373 5.5991 27.4160 12.8044 -0.8402 -0.6784 -0.0000 0.0000 -0.0000 2.7506 -1.8452 0.1868 -6.5520 0.2194 -27.6014 7.7359 -5.7108 14.1922 -4.3709 1.5284 -0.2468 0.0000 0.0000 0.0000 5.3857 3.6461 1.1883 0.6808 4.1062 0.9678 -3.0998 0.2856 -1.9894 0.0000 0.0000 -0.0000
-0.5233 40.2038 -4.1360 -0.3214 -4.1657 0.8033 0.0000 0.0000 0.0000 -3.3550 -3.7461 0.1342 -2.2396 -11.5464 1.2876 2.8362 -0.2543 -0.8477 0.0000 -0.0000 -0.0000 0.0000 0.0000 0.0000 1.4758 -0.2341 -0.8328 -0.0360 -0.3277 -0.2194 -0.0000 0.0000 -0.0000 -0.1415 -0.8788 -1.4770 -0.0000 0.0000 -0.0000 -2.7636 2.4947 0.1101 5.6552 -12.5961 -32.3024 -8.0884 5.5966 27.6291 12.7458 -1.0104 -0.6927 -0.0000 0.0000 -0.0000 2.8338 -1.7863 0.1868 -6.5778 0.2055 -27.7214 7.6639 -5.7103 14.5170 -4.3334 1.8708 -0.2544 0.0000 0.0000 0.0000 5.3905 3.6461 1.1883 0.6819 4.0887 0.9535 -3.0630 0.2832 -1.9640 0.0000 0.0000 -0.0000
-0.5233 40.2038 -4.1387 -0.3325 -4.1725 0.7835 0.0000 0.0000 0.0000 -3.3447 -3.7461 0.1555 -2.2396 -11.5464 1.2756 2.8348 -0.2542 -0.8477 0.0000 -0.0000 -0.0000 0.0000 0.0000 0.0000 1.5589 -0.2597 -0.7309 -0.1628 -0.3339 -0.4256 -0.0000 0.0000 -0.0000 -0.3142 -0.8205 -1.2669 -0.0000 0.0000 -0.0000 -2.7483 2.4426 0.1155 5.7229 -12.5210 -32.3766 -8.0281 5.5931 27.9149 12.7108 -1.2039 -0.7106 -0.0000 0.0000 -0.0000 2.8505 -1.7533 0.1868 -6.5380 0.2081 -27.8710 7.5692 -5.7093 15.0087 -4.2626 2.3747 -0.2645 0.0000 0.0000 0.0000 5.4029 3.6461 1.1919 0.6839 4.0565 0.9385 -3.0264 0.2809 -1.9429 0.0000 0.0000 -0.0000
-0.5233 40.2038 -4.1443 -0.3402 -4.1716 0.7424 0.0000 0.0000 0.0000 -3.3404 -3.7461 0.1882 -2.2417 -11.5403 1.2863 2.8891 -0.2577 -0.8478 0.0000 -0.0000 -0.0000 0.0000 0.0000 0.0000 1.5486 -0.2636 -0.6233 -0.1220 -0.3434 -0.5603 -0.0000 0.0000 -0.0000 -0.4471 -0.8323 -1.0874 -0.0000 0.0000 -0.0000 -2.8982 2.2257 0.1408 5.8262 -12.2622 -32.3121 -8.0432 5.5924 27.9541 12.7235 -1.2316 -0.7141 -0.0000 0.0000 -0.0000 2.7408 -1.8036 0.1868 -6.4044 0.2243 -27.8532 7.5689 -5.7086 15.1694 -4.2522 2.5615 -0.2685 0.0000 0.0000 0.0000 5.4111 3.6461 1.2225 0.6850 4.0387 0.9355 -3.0227 0.2806 -1.9421 0.0000 0.0000 -0.0000
-0.5233 40.2038 -4.1528 -0.3431 -4.1679 0.6991 0.0000 0.0000 0.0000 -3.3424 -3.7461 0.2163 -2.2427 -11.5265 1.3027 2.9038 -0.2586 -0.8490 0.0000 -0.0000 -0.0000 0.0000 0.0000 0.0000 1.5109 -0.2561 -0.5471 -0.0386 -0.3476 -0.5852 -0.0000 0.0000 -0.0000 -0.4795 -0.8149 -1.0742 -0.0000 0.0000 -0.0000 -3.1160 1.8419 0.1862 5.9285 -11.7708 -32.0935 -8.1291 5.5951 27.7084 12.6698 -1.1233 -0.7000 -0.0000 0.0000 -0.0000 2.6607 -1.8648 0.1868 -6.2952 0.2177 -27.6852 7.6567 -5.7087 14.9686 -4.3402 2.3894 -0.2678 0.0000 0.0000 0.0000 5.4141 3.6496 1.2523 0.6839 4.0380 0.9504 -3.0372 0.2816 -1.9489 0.0000 0.0000 -0.0000
-0.5233 40.2038 -4.1643 -0.3491 -4.1671 0.6877 0.0000 0.0000 0.0000 -3.3357 -3.7461 0.2126 -2.2373 -11.5253 1.2984 2.8405 -0.2546 -0.8300 0.0000 -0.0000 -0.0000 0.0000 0.0000 0.0000 1.5246 -0.2523 -0.5221 -0.0475 -0.3435 -0.5737 -0.0000 0.0000 -0.0000 -0.4665 -0.6660 -1.1670 -0.0000 0.0000 -0.0000 -3.2440 1.4830 0.2286 5.9775 -11.3159 -31.8794 -8.2090 5.5987 27.3981 12.5407 -0.9723 -0.6775 -0.0000 0.0000 -0.0000 2.7110 -1.8530 0.1868 -6.2946 0.1832 -27.5433 7.7317 -5.7088 14.7773 -4.4279 2.2007 -0.2669 0.0000 0.0000 0.0000 5.4251 3.6605 1.2386 0.6764 4.0296 0.9700 -3.0481 0.2823 -1.9475 0.0000 0.0000 -0.0000
-0.5233 40.2038 -4.1772 -0.3587 -4.1742 0.7128 0.0000 0.0000 0.0000 -3.3209 -3.7461 0.1741 -2.2307 -11.5366 1.2740 2.7829 -0.2510 -0.7995 0.0000 -0.0000 -0.0000 0.0000 0.0000 0.0000 1.5737 -0.2473 -0.5491 -0.1169 -0.3336 -0.5700 -0.0000 0.0000 -0.0000 -0.4814 -0.4508 -1.2373 -0.0000 0.0000 -0.0000 -3.2537 1.3126 0.2481 5.9614 -11.1653 -31.7912 -8.2489 5.6019 27.1425 12.5014 -0.7820 -0.6562 -0.0000 0.0000 -0.0000 2.7974 -1.7881 0.1868 -6.3381 0.1664 -27.5065 7.7511 -5.7087 14.7776 -4.4010 2.2147 -0.2683 0.0000 0.0000 0.0000 5.4416 3.6736 1.1930 0.6606 4.0151 0.9614 -3.0520 0.2825 -1.9270 0.0000 0.0000 -0.0000
-0.5233 40.2038 -4.1885 -0.3592 -4.1904 0.7412 0.0000 0.0000 0.0000 -3.3194 -3.7461 0.1311 -2.2215 -11.5307 1.2516 2.7971 -0.2520 -0.7765 0.0000 -0.0000 -0.0000 0.0000 0.0000 0.0000 1.5964 -0.2434 -0.6089 -0.1506 -0.3237 -0.5338 -0.0000 0.0000 -0.0000 -0.5022 -0.3580 -1.2942 -0.0000 0.0000 -0.0000 -3.2456 1.2841 0.2512 5.9299 -11.2192 -31.7799 -8.2793 5.6053 26.8698 12.6131 -0.5487 -0.6385 -0.0000 0.0000 -0.0000 2.8120 -1.7456 0.1868 -6.3413 0.2008 -27.5065 7.7570 -5.7083 14.7911 -4.3107 2.2931 -0.2707 0.0000 0.0000 0.0000 5.4418 3.6700 1.1685 0.6560 4.0281 0.9118 -3.0515 0.2825 -1.8856 0.0000 0.0000 -0.0000
-0.5233 40.2038 -4.1973 -0.3456 -4.2056 0.7451 0.0000 0.0000 0.0000 -3.3360 -3.7461 0.1114 -2.2139 -11.5076 1.2434 2.8317 -0.2543 -0.7621 0.0000 -0.0000 -0.0000 0.0000 0.0000 0.0000 1.5759 -0.2439 -0.6615 -0.1276 -0.3241 -0.4494 -0.0000 0.0000 -0.0000 -0.4778 -0.4516 -1.4321 -0.0000 0.0000 -0.0000 -3.3057 1.2685 0.2550 5.9537 -11.2076 -31.7615 -8.3090 5.6080 26.6475 12.6846 -0.4031 -0.6274 -0.0000 0.0000 -0.0000 2.7757 -1.7479 0.1868 -6.3130 0.2617 -27.4977 7.7722 -5.7073 14.6807 -4.3167 2.2164 -0.2708 0.0000 0.0000 0.0000 5.4222 3.6524 1.1809 0.6629 4.0623 0.8530 -3.0493 0.2824 -1.8401 0.0000 0.0000 -0.0000
-0.5252 40.2038 -4.2059 -0.3336 -4.1972 0.7320 0.0000 0.0000 0.0000 -3.3442 -3.7437 0.1132 -2.2173 -11.5119 1.2400 2.8216 -0.2537 -0.7439 0.0000 -0.0000 -0.0000 0.0000 0.0000 0.0000 1.5377 -0.2541 -0.6712 -0.0727 -0.3426 -0.3786 -0.0000 0.0000 -0.0000 -0.4306 -0.5735 -1.6395 -0.0000 0.0000 -0.0000 -3.4166 1.2473 0.2578 6.0541 -11.1179 -31.7821 -8.2877 5.6067 26.7602 12.5551 -0.5128 -0.6318 -0.0000 0.0000 -0.0000 2.7201 -1.7689 0.1868 -6.2739 0.3152 -27.5088 7.7756 -5.7094 14.5430 -4.4673 1.9787 -0.2682 0.0000 0.0000 0.0000 5.4126 3.6482 1.1925 0.6603 4.0626 0.8254 -3.0487 0.2823 -1.8152 0.0000 0.0000 -0.0000
-0.5283 40.2038 -4.2157 -0.3391 -4.1657 0.7214 0.0000 0.0000 0.0000 -3.3258 -3.7316 0.1227 -2.2278 -11.5601 1.2249 2.7922 -0.2519 -0.7187 0.0000 -0.0000 -0.0000 0.0000 0.0000 0.0000 1.5085 -0.2729 -0.6434 -0.0108 -0.3712 -0.3628 -0.0000 0.0000 -0.0000 -0.3980 -0.5682 -1.8098 -0.0000 0.0000 -0.0000 -3.4843 1.2732 0.2573 6.1613 -11.1357 -31.9328 -8.1854 5.6012 27.2319 12.3523 -0.8507 -0.6551 -0.0000 0.0000 -0.0000 2.6274 -1.7942 0.1845 -6.2059 0.3709 -27.5475 7.7612 -5.7096 14.4840 -4.6356 1.7685 -0.2654 0.0000 0.0000 0.0000 5.4333 3.6689 1.1781 0.6412 4.0129 0.8344 -3.0523 0.2826 -1.8128 0.0000 0.0000 -0.0000
-0.5314 40.2038 -4.2259 -0.3539 -4.1414 0.7149 0.0000 0.0000 0.0000 -3.2978 -3.7145 0.1286 -2.2337 -11.6081 1.2035 2.7919 -0.2519 -0.6981 0.0000 -0.0000 -0.0000 0.0000 0.0000 0.0000 1.5021 -0.2888 -0.6135 0.0154 -0.3916 -0.3639 -0.0000 0.0000 -0.0000 -0.3497 -0.4868 -1.9022 -0.0000 0.0000 -0.0000 -3.4467 1.3395 0.2488 6.1727 -11.2623 -32.1425 -8.0668 5.5973 27.5934 12.2953 -1.1802 -0.6845 -0.0000 0.0000 -0.0000 2.5612 -1.8150 0.1823 -6.1475 0.4371 -27.5925 7.7447 -5.7097 14.4940 -4.6874 1.7394 -0.2646 0.0000 0.0000 0.0000 5.4654 3.6958 1.1531 0.6215 3.9622 0.8606 -3.0632 0.2832 -1.8114 0.0000 0.0000 -0.0000
-0.5341 40.2038 -4.2368 -0.3600 -4.1332 0.7046 0.0000 0.0000 0.0000 -3.2836 -3.7050 0.1201 -2.2395 -11.6258 1.2116 2.8061 -0.2528 -0.6938 0.0000 -0.0000 -0.0000 0.0000 0.0000 0.0000 1.5165 -0.3023 -0.5965 -0.0192 -0.3996 -0.3426 -0.0000 0.0000 -0.0000 -0.2676 -0.4535 -1.9644 -0.0000 0.0000 -0.0000 -3.3753 1.3950 0.2411 6.0797 -11.2992 -32.2047 -8.0386 5.5992 27.4768 12.3856 -1.3472 -0.7062 -0.0000 0.0000 -0.0000 2.6442 -1.8108 0.1825 -6.1722 0.4703 -27.6624 7.7111 -5.7099 14.5374 -4.6265 1.8250 -0.2656 0.0000 0.0000 0.0000 5.4829 3.7104 1.1307 0.6121 3.9366 0.8921 -3.0705 0.2837 -1.8105 0.0000 0.0000 -0.0000
-0.5364 40.2038 -4.2494 -0.3567 -4.1078 0.6941 0.0000 0.0000 0.0000 -3.2823 -3.7028 0.0854 -2.2560 -11.6427 1.2752 2.8030 -0.2526 -0.7072 0.0000 -0.0000 -0.0000 0.0000 0.0000 0.0000 1.5362 -0.3189 -0.5820 -0.0694 -0.4083 -0.3098 -0.0000 0.0000 -0.0000 -0.2170 -0.4469 -2.0161 -0.0000 0.0000 -0.0000 -3.4148 1.4110 0.2400 5.9836 -11.1788 -32.0631 -8.1108 5.6028 27.1644 12.4597 -1.4589 -0.7217 -0.0000 0.0000 -0.0000 2.8553 -1.7863 0.1885 -6.2319 0.4346 -27.7686 7.6479 -5.7103 14.5694 -4.5543 1.8394 -0.2661 0.0000 0.0000 0.0000 5.4876 3.7143 1.0999 0.6067 3.8990 0.9250 -3.0746 0.2840 -1.8094 0.0000 0.0000 -0.0000
